# xmcd CD database file
#
# Track frame offsets:
#	150
#	10687
#	18262
#	34237
#	44625
#	52375
#	63987
#	74737
#	86000
#	97450
#
# Disc length: 1372 seconds
#
# Revision: 0
# Processed by: cddbd v1.5.2PL0 Copyright (c) Steve Scherf et al.
# Submitted via: CDex 1.70beta2
#
DISCID=94055a0a
DTITLE=Various Artist - Country Collection
DYEAR=1996
DGENRE=Country
TTITLE0=Waylon jennings - Burning memories
TTITLE1=Conway twitty - Treat Me Mean And Cruel
TTITLE2=Kenny rogers - Tulsa Turnaround
TTITLE3=Patsy Cline - Secrets
TTITLE4=Dolly Parton - Puppy Love
TTITLE5=Oak Ridge Boys - At the Roll Call
TTITLE6=Lynn Anderson - Heaven's Just A Sin Away
TTITLE7=Anne murray - The Last thing on My Mind
TTITLE8=George Jones - You Comb Her Hair
TTITLE9=Willie Nelson - The Ghost
EXTD=YEAR: 1996
EXTT0=
EXTT1=
EXTT2=
EXTT3=
EXTT4=
EXTT5=
EXTT6=
EXTT7=
EXTT8=
EXTT9=
PLAYORDER=
